<svg width="45" height="42" viewBox="0 0 45 42" fill="none" xmlns="http://www.w3.org/2000/svg">
<path d="M44.8526 41.9689C44.875 41.945 39.87 32.6931 33.7305 21.4091C27.5909 10.1252 22.5247 0.849754 22.4723 0.797267C22.355 0.679534 18.8793 7.04713 18.9431 7.26273C18.9682 7.34784 22.1211 13.2142 25.9495 20.2989C29.7779 27.3838 32.8815 33.2091 32.8466 33.2442C32.8115 33.2791 29.6421 33.2033 25.8035 33.0756C21.9648 32.9478 18.6917 32.8642 18.5298 32.8897C18.368 32.9151 24.2153 34.9781 31.5237 37.4742C38.8323 39.9703 44.8303 41.993 44.8526 41.9689Z" fill="#FFF509"/>
<path d="M28.2157 31.0499C28.2372 31.0341 25.7597 26.4118 22.7101 20.778C19.6605 15.1442 17.131 10.5372 17.0889 10.5401C17.0261 10.5446 0.156227 41.4778 7.15431e-05 41.8751C-0.0266069 41.9427 7.41146 41.9933 16.5291 41.9875L33.1064 41.977L21.7572 39.1082C15.5152 37.5304 10.3803 36.2116 10.3464 36.1777C10.2733 36.1047 17.2655 23.1609 17.3818 23.1538C17.4254 23.1512 18.4041 24.8944 19.5567 27.0275L21.6522 30.9061L24.9144 30.9922C26.7087 31.0396 28.1943 31.0656 28.2157 31.0499Z" fill="#FFF509"/>
</svg>
