<svg width="690" height="652" viewBox="0 0 690 652" fill="none" xmlns="http://www.w3.org/2000/svg">
<g clip-path="url(#clip0_26_46310)">
<path d="M415.21 278.2C440.9 339.77 463.26 403.12 478.73 468.08C484.57 492.61 489.49 517.46 492.06 542.56C493.87 560.25 494.99 578.72 491.69 596.31C489.89 605.89 486.31 618 476.57 622.36C467.46 626.44 457.01 621.64 449.24 616.8C435.28 608.1 423.61 595.69 412.96 583.32C397.75 565.65 384.28 546.5 371.63 526.94C337.76 474.57 309.51 418.51 284.5 361.44C257.12 299 233.41 234.64 216 168.69C209.12 142.61 203.21 116.2 199.39 89.4901C196.61 70.0401 194.67 50.0901 196.29 30.4501C197.21 19.2101 199.13 5.22007 207.64 -3.09993C214.65 -9.94993 224.47 -8.84993 232.78 -5.13993C246 0.770067 257.08 11.4101 266.93 21.7601C281.87 37.4701 294.96 54.9301 307.21 72.7801C341.22 122.35 369.3 176.06 394.36 230.61C401.58 246.36 408.52 262.22 415.21 278.2C415.82 279.66 418.24 279.02 417.62 277.54C392.25 216.88 363.38 157.34 328.77 101.36C315.73 80.2701 301.83 59.6401 286.31 40.2801C274.98 26.1501 262.71 12.2701 248.19 1.33007C239.76 -5.01993 228.9 -11.7899 217.84 -10.5799C207.76 -9.47993 201.58 -1.19993 198.28 7.71007C192.86 22.3201 192.83 38.9701 193.48 54.3201C194.48 77.9201 198.29 101.4 203.02 124.51C216.21 188.85 237.24 251.66 261.43 312.62C286.48 375.76 315.4 437.66 349.81 496.27C363.2 519.07 377.46 541.42 393.28 562.62C405.15 578.52 417.87 594.13 432.75 607.34C446.91 619.91 473.67 638.04 487.67 615.28C494.84 603.62 495.88 588.39 496.13 575.07C496.55 553.3 493.71 531.47 489.99 510.07C479.2 447.9 459.85 387.11 437.69 328.15C431.3 311.16 424.6 294.29 417.61 277.55C417.01 276.08 414.59 276.72 415.21 278.2Z" fill="white"/>
<path d="M123.12 400.58C109.11 366.93 98.7099 331.78 92.7399 295.81C87.2499 262.76 85.4899 229.01 88.2899 195.6C90.8399 165.21 97.2399 135.01 108.47 106.62C118.66 80.8799 133 56.5899 151.89 36.2699C170 16.7899 192.22 1.25993 217.05 -8.40007C240.05 -17.3501 264.78 -21.1501 289.41 -20.1001C315.25 -19.0001 340.7 -12.6901 364.58 -2.90008C390.78 7.83992 415.22 22.7999 437.42 40.3199C461.66 59.4399 483.38 81.6899 502.49 105.91C523.27 132.24 540.96 160.98 555.54 191.17C571.45 224.12 583.7 258.88 591.74 294.58C599.26 327.99 603.08 362.3 602.36 396.56C601.71 427.82 597.27 459.1 588 489C579.67 515.88 567.34 541.67 550.33 564.15C534.2 585.46 513.77 603.47 490.1 615.96C467.84 627.7 443.11 634.37 418 635.68C392.59 637.01 367.13 633.01 342.97 625.2C316.78 616.73 292.13 603.86 269.51 588.26C244.49 571.01 221.89 550.35 201.81 527.58C180.03 502.89 161.21 475.64 145.38 446.79C137.15 431.8 129.73 416.36 123.12 400.58C122.51 399.12 120.09 399.76 120.71 401.24C134.07 433.12 150.63 463.63 170.53 491.9C188.9 517.99 210.04 542.21 233.91 563.42C255.79 582.86 279.99 599.87 306.25 612.86C329.99 624.61 355.44 633.1 381.73 636.63C406.48 639.95 431.83 638.72 455.96 632.12C481.17 625.22 504.6 612.59 524.39 595.54C545.26 577.56 561.83 554.96 574.14 530.4C587.56 503.61 596.09 474.52 600.68 444.97C605.76 412.25 606.15 378.89 602.73 345.98C598.99 310 590.77 274.53 578.74 240.43C566.89 206.84 551.44 174.47 532.53 144.27C515.17 116.54 494.86 90.5899 471.69 67.4699C450.59 46.4199 427.06 27.6499 401.31 12.5799C377.91 -1.11007 352.57 -11.8001 326.07 -17.7001C301.55 -23.1601 276.09 -24.4201 251.26 -20.3401C225.78 -16.1501 201.32 -6.26007 180.1 8.45992C157.88 23.8699 139.49 44.2699 125.32 67.2399C109.98 92.1199 99.5199 119.85 93.0299 148.29C85.8499 179.8 83.4499 212.35 84.8499 244.61C86.3799 280.01 92.4699 315.18 102.33 349.2C107.46 366.89 113.62 384.25 120.7 401.25C121.32 402.71 123.74 402.07 123.12 400.58Z" fill="white"/>
<path d="M310.5 226.34C372.64 200.41 436.92 178.38 502.87 164.4C527.98 159.08 553.46 154.88 579.12 153.41C597.22 152.38 616.11 152.32 633.75 157.05C644.38 159.9 656.32 165.23 660.7 176.15C664.81 186.41 660.78 197.85 655.76 207C647.62 221.85 635.54 234.49 623.25 245.97C605.93 262.15 586.89 276.46 567.32 289.8C515.73 324.99 459.81 353.91 402.74 379.09C339.89 406.82 274.74 430.3 207.91 446.42C181.36 452.82 154.44 458.09 127.26 460.88C107.3 462.93 86.72 464 66.81 460.91C54.71 459.04 40.54 455.53 32.38 445.61C25.54 437.3 26.22 426.41 29.83 416.86C35.17 402.74 45.55 390.57 55.87 379.82C71.2 363.86 88.56 349.88 106.43 336.88C155.16 301.43 208.72 272.53 263.28 247.16C278.88 239.91 294.63 232.98 310.5 226.34C311.96 225.73 311.32 223.31 309.84 223.93C249.17 249.31 189.78 278.73 134.56 314.58C113.48 328.26 92.93 342.94 73.92 359.39C59.95 371.48 46.34 384.66 36 400.07C29.53 409.71 23.4 421.58 24.74 433.57C25.97 444.61 34.01 452.44 43.7 456.96C58.52 463.87 75.84 465.1 91.96 465.22C115.84 465.41 139.74 462.41 163.23 458.31C228.57 446.91 292.4 426.35 354.01 402.1C416.97 377.32 478.54 348.1 536.3 312.77C559.26 298.73 581.66 283.67 602.71 266.89C618.56 254.26 633.99 240.59 646.69 224.72C654.83 214.56 662.92 202.61 664.6 189.37C665.94 178.84 661.71 169.3 653.17 163.02C641.61 154.51 626.03 152.14 612.09 151.02C590.16 149.26 567.96 151.2 546.22 154.18C482.78 162.89 420.6 181.73 360.67 203.88C343.58 210.2 326.64 216.89 309.82 223.9C308.37 224.54 309.01 226.96 310.5 226.34Z" fill="white"/>
<path d="M660.51 175.72C674.23 208.67 682.9 243.66 685.8 279.25C688.6 313.6 686.12 348.33 678.5 381.93C670.95 415.23 658.42 447.35 641.42 476.96C624.27 506.84 602.63 534.08 577.37 557.52C551.29 581.72 521.41 601.73 489.17 616.78C456.34 632.1 421.08 642.3 385.11 646.66C350.68 650.84 315.64 649.74 281.54 643.4C248.05 637.17 215.5 625.95 185.3 610.18C154.83 594.27 126.79 573.79 102.44 549.52C77.41 524.58 56.38 495.73 40.24 464.3C23.77 432.24 12.38 397.59 6.68997 362C1.19997 327.63 1.08997 292.38 6.31997 257.97C11.45 224.21 21.66 191.23 36.49 160.47C51.4 129.57 70.93 100.92 94.31 75.8C118.2 50.13 146.03 28.23 176.58 11.01C208.18 -6.80999 242.59 -19.64 278.15 -26.81C312.4 -33.7 347.68 -35.27 382.41 -31.5C416.62 -27.79 450.3 -18.86 481.87 -5.15999C513.3 8.49001 542.69 26.83 568.68 49.17C595.22 71.99 618.17 98.91 636.47 128.74C645.67 143.75 653.7 159.48 660.51 175.72C661.12 177.18 663.54 176.54 662.92 175.06C649.02 141.9 630.11 110.98 606.69 83.69C583.98 57.23 557.17 34.33 527.54 15.95C498.31 -2.18999 466.35 -15.92 433.08 -24.66C399.51 -33.49 364.6 -37.23 329.92 -35.65C293.94 -34.01 258.27 -26.67 224.55 -14.03C190.64 -1.31999 158.78 16.6 130.4 39.1C103.09 60.75 79.16 86.6 59.59 115.43C40.21 143.98 25.16 175.45 15.06 208.44C4.90998 241.58 -0.210026 276.28 0.00997429 310.94C0.229974 346.43 6.04998 381.86 17.16 415.56C28.52 450.01 45.28 482.69 66.79 511.91C87.49 540.02 112.47 564.86 140.68 585.42C168.61 605.78 199.62 621.87 232.32 633.06C265.03 644.25 299.44 650.5 334 651.51C369.61 652.54 405.35 647.98 439.57 638.07C474.73 627.89 508.33 612.16 538.6 591.58C567.61 571.85 593.55 547.69 615.26 520.14C636.46 493.22 653.6 463.2 666.03 431.26C678.56 399.04 686.21 364.94 688.61 330.45C691.06 295.24 687.99 259.67 679.55 225.39C675.32 208.21 669.73 191.38 662.93 175.05C662.32 173.59 659.9 174.23 660.51 175.72Z" fill="white"/>
</g>
<defs>
<clipPath id="clip0_26_46310">
<rect width="689.42" height="687.65" fill="white" transform="translate(0 -36)"/>
</clipPath>
</defs>
</svg>
