<svg width="690" height="688" viewBox="0 0 690 688" fill="none" xmlns="http://www.w3.org/2000/svg">
<path d="M415.207 314.203C440.897 375.773 463.257 439.123 478.727 504.083C484.567 528.613 489.487 553.463 492.057 578.563C493.867 596.253 494.987 614.723 491.687 632.313C489.887 641.893 486.307 654.003 476.567 658.363C467.457 662.443 457.007 657.643 449.237 652.803C435.277 644.103 423.607 631.693 412.957 619.323C397.747 601.653 384.277 582.503 371.627 562.943C337.757 510.573 309.507 454.513 284.497 397.443C257.117 335.003 233.407 270.643 215.997 204.693C209.117 178.613 203.207 152.203 199.387 125.493C196.607 106.043 194.667 86.0927 196.287 66.4527C197.207 55.2127 199.127 41.2228 207.637 32.9028C214.647 26.0528 224.467 27.1528 232.777 30.8628C245.997 36.7728 257.077 47.4128 266.927 57.7627C281.867 73.4727 294.957 90.9328 307.207 108.783C341.217 158.353 369.297 212.063 394.357 266.613C401.577 282.363 408.517 298.223 415.207 314.203C415.817 315.663 418.237 315.023 417.617 313.543C392.247 252.883 363.377 193.343 328.767 137.363C315.727 116.273 301.827 95.6427 286.307 76.2827C274.977 62.1527 262.707 48.2728 248.187 37.3328C239.757 30.9828 228.897 24.2128 217.837 25.4228C207.757 26.5228 201.577 34.8027 198.277 43.7127C192.857 58.3227 192.827 74.9728 193.477 90.3228C194.477 113.923 198.287 137.403 203.017 160.513C216.207 224.853 237.237 287.663 261.427 348.623C286.477 411.763 315.397 473.663 349.807 532.273C363.197 555.073 377.457 577.423 393.277 598.623C405.147 614.523 417.867 630.133 432.747 643.343C446.907 655.913 473.667 674.043 487.667 651.283C494.837 639.623 495.877 624.393 496.127 611.073C496.547 589.303 493.707 567.473 489.987 546.073C479.197 483.903 459.847 423.113 437.687 364.153C431.297 347.163 424.597 330.293 417.607 313.553C417.007 312.083 414.587 312.723 415.207 314.203Z" fill="white"/>
<path d="M123.117 436.583C109.107 402.933 98.7069 367.783 92.7369 331.813C87.2469 298.763 85.4869 265.013 88.2869 231.603C90.8369 201.213 97.2369 171.013 108.467 142.623C118.657 116.883 132.997 92.5926 151.887 72.2726C169.997 52.7926 192.217 37.2626 217.047 27.6026C240.047 18.6526 264.777 14.8526 289.407 15.9026C315.247 17.0026 340.697 23.3126 364.577 33.1026C390.777 43.8426 415.217 58.8026 437.417 76.3226C461.657 95.4426 483.377 117.693 502.487 141.913C523.267 168.243 540.957 196.983 555.537 227.173C571.447 260.123 583.697 294.883 591.737 330.583C599.257 363.993 603.077 398.303 602.357 432.563C601.707 463.823 597.267 495.103 587.997 525.003C579.667 551.883 567.337 577.673 550.327 600.153C534.197 621.463 513.767 639.473 490.097 651.963C467.837 663.703 443.107 670.373 417.997 671.683C392.587 673.013 367.127 669.013 342.967 661.203C316.777 652.733 292.127 639.863 269.507 624.263C244.487 607.013 221.887 586.353 201.807 563.583C180.027 538.893 161.207 511.643 145.377 482.793C137.147 467.803 129.727 452.363 123.117 436.583C122.507 435.123 120.087 435.763 120.707 437.243C134.067 469.123 150.627 499.633 170.527 527.903C188.897 553.993 210.037 578.213 233.907 599.423C255.787 618.863 279.987 635.873 306.247 648.863C329.987 660.613 355.437 669.103 381.727 672.633C406.477 675.953 431.827 674.723 455.957 668.123C481.167 661.223 504.597 648.593 524.387 631.543C545.257 613.563 561.827 590.963 574.137 566.403C587.557 539.613 596.087 510.523 600.677 480.973C605.757 448.253 606.147 414.893 602.727 381.983C598.987 346.003 590.767 310.533 578.737 276.433C566.887 242.843 551.437 210.473 532.527 180.273C515.167 152.543 494.857 126.593 471.687 103.473C450.587 82.4226 427.057 63.6526 401.307 48.5826C377.907 34.8926 352.567 24.2026 326.067 18.3026C301.547 12.8426 276.087 11.5826 251.257 15.6626C225.777 19.8526 201.317 29.7426 180.097 44.4626C157.877 59.8726 139.487 80.2726 125.317 103.243C109.977 128.123 99.5169 155.853 93.0269 184.293C85.8469 215.803 83.4469 248.353 84.8469 280.613C86.3769 316.013 92.4669 351.183 102.327 385.203C107.457 402.893 113.617 420.253 120.697 437.253C121.317 438.713 123.737 438.073 123.117 436.583Z" fill="white"/>
<path d="M310.497 262.343C372.637 236.413 436.917 214.383 502.867 200.403C527.977 195.083 553.457 190.883 579.117 189.413C597.217 188.383 616.107 188.323 633.747 193.053C644.377 195.903 656.317 201.233 660.697 212.153C664.807 222.413 660.777 233.853 655.757 243.003C647.617 257.853 635.537 270.493 623.247 281.973C605.927 298.153 586.887 312.463 567.317 325.803C515.727 360.993 459.807 389.913 402.737 415.093C339.887 442.823 274.737 466.303 207.907 482.423C181.357 488.823 154.437 494.093 127.257 496.883C107.297 498.933 86.7168 500.003 66.8068 496.913C54.7068 495.043 40.5368 491.533 32.3768 481.613C25.5368 473.303 26.2168 462.413 29.8268 452.863C35.1668 438.743 45.5468 426.573 55.8668 415.823C71.1968 399.863 88.5568 385.883 106.427 372.883C155.157 337.433 208.717 308.533 263.277 283.163C278.877 275.913 294.627 268.983 310.497 262.343C311.957 261.733 311.317 259.313 309.837 259.933C249.167 285.313 189.777 314.733 134.557 350.583C113.477 364.263 92.9268 378.943 73.9168 395.393C59.9468 407.483 46.3368 420.663 35.9968 436.073C29.5268 445.713 23.3968 457.583 24.7368 469.573C25.9668 480.613 34.0068 488.443 43.6968 492.963C58.5168 499.873 75.8368 501.103 91.9568 501.223C115.837 501.413 139.737 498.413 163.227 494.313C228.567 482.913 292.397 462.353 354.007 438.103C416.967 413.323 478.537 384.103 536.297 348.773C559.257 334.733 581.657 319.673 602.707 302.893C618.557 290.263 633.987 276.593 646.687 260.723C654.827 250.563 662.917 238.613 664.597 225.373C665.937 214.843 661.707 205.303 653.167 199.023C641.607 190.513 626.027 188.143 612.087 187.023C590.157 185.263 567.957 187.203 546.217 190.183C482.777 198.893 420.597 217.733 360.667 239.883C343.577 246.203 326.637 252.893 309.817 259.903C308.367 260.543 309.007 262.963 310.497 262.343Z" fill="white"/>
<path d="M660.507 211.723C674.227 244.673 682.897 279.663 685.797 315.253C688.597 349.603 686.117 384.333 678.497 417.933C670.947 451.233 658.417 483.353 641.417 512.963C624.267 542.843 602.627 570.083 577.367 593.523C551.287 617.723 521.407 637.733 489.167 652.783C456.337 668.103 421.077 678.303 385.107 682.663C350.677 686.843 315.637 685.743 281.537 679.403C248.047 673.173 215.497 661.953 185.297 646.183C154.827 630.273 126.787 609.793 102.437 585.523C77.4068 560.583 56.3768 531.733 40.2368 500.303C23.7668 468.243 12.3768 433.593 6.6868 398.003C1.1968 363.633 1.0868 328.383 6.3168 293.973C11.4468 260.213 21.6568 227.233 36.4868 196.473C51.3968 165.573 70.9268 136.923 94.3068 111.803C118.197 86.1327 146.027 64.2327 176.577 47.0127C208.177 29.1927 242.587 16.3627 278.147 9.19269C312.397 2.30269 347.677 0.732693 382.407 4.50269C416.617 8.21269 450.297 17.1427 481.867 30.8427C513.297 44.4927 542.687 62.8327 568.677 85.1727C595.217 107.993 618.167 134.913 636.467 164.743C645.667 179.753 653.697 195.483 660.507 211.723C661.117 213.183 663.537 212.543 662.917 211.063C649.017 177.903 630.107 146.983 606.687 119.693C583.977 93.2327 557.167 70.3327 527.537 51.9527C498.307 33.8127 466.347 20.0827 433.077 11.3427C399.507 2.51269 364.597 -1.22731 329.917 0.352693C293.937 1.99269 258.267 9.33269 224.547 21.9727C190.637 34.6827 158.777 52.6027 130.397 75.1027C103.087 96.7527 79.1568 122.603 59.5868 151.433C40.2068 179.983 25.1568 211.453 15.0568 244.443C4.9068 277.583 -0.2132 312.283 0.00680046 346.943C0.2268 382.433 6.0468 417.863 17.1568 451.563C28.5168 486.013 45.2768 518.693 66.7868 547.913C87.4868 576.023 112.467 600.863 140.677 621.423C168.607 641.783 199.617 657.873 232.317 669.063C265.027 680.253 299.437 686.503 333.997 687.513C369.607 688.543 405.347 683.983 439.567 674.073C474.727 663.893 508.327 648.163 538.597 627.583C567.607 607.853 593.547 583.693 615.257 556.143C636.457 529.223 653.597 499.203 666.027 467.263C678.557 435.043 686.207 400.943 688.607 366.453C691.057 331.243 687.987 295.673 679.547 261.393C675.317 244.213 669.727 227.383 662.927 211.053C662.317 209.593 659.897 210.233 660.507 211.723Z" fill="white"/>
<path d="M332.949 307.014C335.186 308.706 337.416 310.406 339.659 312.088C347.157 317.711 354.659 323.326 362.166 328.936C362.539 329.216 362.597 329.423 362.3 329.813C357.988 335.447 353.688 341.089 349.393 346.736C349.181 347.015 348.959 347.1 348.613 347.049C341.617 345.999 334.621 344.95 327.621 343.928C327.007 343.838 326.99 343.57 327.069 343.071C328.919 331.425 330.756 319.778 332.594 308.132C332.647 307.792 332.68 307.448 332.724 307.105C332.798 307.075 332.873 307.044 332.949 307.014Z" fill="#FFF509"/>
<path d="M328.581 347.189C328.795 347.05 329.016 347.15 329.223 347.18C336.058 348.197 342.894 349.213 349.725 350.248C350.203 350.32 350.497 350.237 350.802 349.836C354.966 344.346 359.15 338.872 363.328 333.394C363.474 333.203 363.631 333.022 363.805 332.81C364.019 333.038 363.885 333.232 363.844 333.408C361.412 343.737 358.975 354.063 356.539 364.39C356.39 365.024 356.355 365.038 355.792 364.679C346.846 358.974 337.901 353.267 328.96 347.558C328.814 347.464 328.611 347.42 328.581 347.189Z" fill="#FFF509"/>
</svg>
