<svg width="720" height="614" viewBox="0 0 720 614" fill="none" xmlns="http://www.w3.org/2000/svg">
<path d="M105.303 368.278V461.037C105.303 477.606 91.8713 491.037 75.3027 491.037H-17.4565" stroke="white" stroke-width="1.5"/>
<path d="M228.062 245.519V338.278C228.062 354.846 214.631 368.278 198.062 368.278H105.303" stroke="white" stroke-width="1.5"/>
<path d="M350.821 368.278V461.037C350.821 477.606 337.39 491.037 320.821 491.037H228.062" stroke="white" stroke-width="1.5"/>
<path d="M105.303 122.759V215.519C105.303 232.087 91.8713 245.519 75.3027 245.519H-17.4565" stroke="#FFF509" stroke-width="1.5"/>
<path d="M473.581 245.519V338.278C473.581 354.846 460.149 368.278 443.581 368.278H350.821" stroke="white" stroke-width="1.5"/>
<path d="M228.062 0V92.7593C228.062 109.328 214.631 122.759 198.062 122.759H105.303" stroke="white" stroke-width="1.5"/>
<path d="M596.34 368.278V461.037C596.34 477.606 582.908 491.037 566.34 491.037H473.581" stroke="white" stroke-width="1.5"/>
<path d="M350.821 122.759V215.519C350.821 232.087 337.39 245.519 320.821 245.519H228.062" stroke="white" stroke-width="1.5"/>
<path d="M105.303 368.278H12.5435C-4.02509 368.278 -17.4565 381.709 -17.4565 398.278V491.037" stroke="white" stroke-width="1.5"/>
<path d="M228.062 491.037H135.303C118.734 491.037 105.303 504.469 105.303 521.037V613.796" stroke="white" stroke-width="1.5"/>
<path d="M350.821 368.278H258.062C241.493 368.278 228.062 381.709 228.062 398.278V491.037" stroke="#FFF509" stroke-width="1.5"/>
<path d="M105.303 122.759H12.5435C-4.02509 122.759 -17.4565 136.191 -17.4565 152.759V245.519" stroke="white" stroke-width="1.5"/>
<path d="M473.581 491.037H380.821C364.253 491.037 350.821 504.469 350.821 521.037V613.796" stroke="white" stroke-width="1.5"/>
<path d="M228.062 245.519H135.303C118.734 245.519 105.303 258.95 105.303 275.519V368.278" stroke="white" stroke-width="1.5"/>
<path d="M596.34 368.278H503.581C487.012 368.278 473.581 381.709 473.581 398.278V491.037" stroke="white" stroke-width="1.5"/>
<path d="M350.821 122.759H258.062C241.493 122.759 228.062 136.191 228.062 152.759V245.519" stroke="white" stroke-width="1.5"/>
<path d="M719.099 491.037H626.34C609.771 491.037 596.34 504.469 596.34 521.037V613.796" stroke="white" stroke-width="1.5"/>
<path d="M473.581 245.519H380.821C364.253 245.519 350.821 258.95 350.821 275.519V368.278" stroke="white" stroke-width="1.5"/>
</svg>
