<svg width="130" height="130" viewBox="0 0 130 130" fill="none" xmlns="http://www.w3.org/2000/svg">
<g clip-path="url(#clip0_43_99)">
<mask id="mask0_43_99" style="mask-type:alpha" maskUnits="userSpaceOnUse" x="-121" y="0" width="466" height="142">
<rect x="-120.451" width="465" height="141.432" fill="#D9D9D9"/>
</mask>
<g mask="url(#mask0_43_99)">
<line y1="-0.5" x2="162.443" y2="-0.5" transform="matrix(0.560199 0.828358 -0.587067 0.809539 -86.9985 1.30127)" stroke="white" stroke-opacity="0.5"/>
<line y1="-0.5" x2="162.443" y2="-0.5" transform="matrix(0.560199 0.828358 -0.587067 0.809539 -66.998 1.30127)" stroke="white" stroke-opacity="0.5"/>
<line y1="-0.5" x2="162.443" y2="-0.5" transform="matrix(0.560199 0.828358 -0.587067 0.809539 -46.998 1.30127)" stroke="white" stroke-opacity="0.5"/>
<line y1="-0.5" x2="162.443" y2="-0.5" transform="matrix(0.560199 0.828358 -0.587067 0.809539 -26.9976 1.30127)" stroke="white" stroke-opacity="0.5"/>
<line y1="-0.5" x2="162.443" y2="-0.5" transform="matrix(0.560199 0.828358 -0.587067 0.809539 -6.99756 1.30127)" stroke="white" stroke-opacity="0.5"/>
<line y1="-0.5" x2="162.443" y2="-0.5" transform="matrix(0.560199 0.828358 -0.587067 0.809539 13.0029 1.30127)" stroke="white" stroke-opacity="0.5"/>
<line y1="-0.5" x2="162.443" y2="-0.5" transform="matrix(0.560199 0.828358 -0.587067 0.809539 33.0029 1.30127)" stroke="white" stroke-opacity="0.5"/>
<line y1="-0.5" x2="162.443" y2="-0.5" transform="matrix(0.560199 0.828358 -0.587067 0.809539 53.0034 1.30127)" stroke="white" stroke-opacity="0.5"/>
<line y1="-0.5" x2="162.443" y2="-0.5" transform="matrix(0.560199 0.828358 -0.587067 0.809539 73.0034 1.30127)" stroke="white" stroke-opacity="0.5"/>
<line y1="-0.5" x2="162.443" y2="-0.5" transform="matrix(0.560199 0.828358 -0.587067 0.809539 93.0039 1.30127)" stroke="white" stroke-opacity="0.5"/>
<line y1="-0.5" x2="162.443" y2="-0.5" transform="matrix(0.560199 0.828358 -0.587067 0.809539 113.004 1.30127)" stroke="white" stroke-opacity="0.5"/>
</g>
</g>
<defs>
<clipPath id="clip0_43_99">
<rect width="130" height="130" rx="65" fill="white"/>
</clipPath>
</defs>
</svg>
