<svg width="2306" height="1011" viewBox="0 0 2306 1011" fill="none" xmlns="http://www.w3.org/2000/svg">
<path d="M491.037 606.81V989.359C491.037 1000.4 499.991 1009.36 511.037 1009.36H1350.87" stroke="white" stroke-width="1.5"/>
<path d="M1350.87 1009.36L2305.73 1009.36" stroke="white" stroke-width="1.5" stroke-dasharray="12 12"/>
<path d="M368.278 245.519V338.278C368.278 354.846 354.846 368.278 338.278 368.278H245.519" stroke="white" stroke-width="1.5"/>
<path d="M122.759 0V92.7593C122.759 109.328 109.328 122.759 92.7593 122.759H0" stroke="white" stroke-width="1.5"/>
<path d="M491.037 368.278V461.037C491.037 477.606 477.606 491.037 461.037 491.037H368.278" stroke="white" stroke-width="1.5"/>
<path d="M245.519 122.759V215.519C245.519 232.087 232.087 245.519 215.519 245.519H122.759" stroke="white" stroke-width="1.5"/>
<path d="M613.796 245.519V338.278C613.796 354.846 600.365 368.278 583.796 368.278H491.037" stroke="#4C4C4C" stroke-width="1.5"/>
<path d="M368.278 0V92.7593C368.278 109.328 354.846 122.759 338.278 122.759H245.519" stroke="white" stroke-width="1.5"/>
<path d="M736.556 368.278V461.037C736.556 477.606 723.124 491.037 706.556 491.037H613.796" stroke="white" stroke-width="1.5"/>
<path d="M491.037 122.759V215.519C491.037 232.087 477.606 245.519 461.037 245.519H368.278" stroke="#FFF509" stroke-width="1.5"/>
<path d="M859.315 245.519V338.278C859.315 354.846 845.883 368.278 829.315 368.278H736.556" stroke="white" stroke-width="1.5"/>
<path d="M613.796 0V92.7593C613.796 109.328 600.365 122.759 583.796 122.759H491.037" stroke="white" stroke-width="1.5"/>
<path d="M982.074 368.278V461.037C982.074 477.606 968.643 491.037 952.074 491.037H859.315" stroke="white" stroke-width="1.5"/>
<path d="M736.556 122.759V215.519C736.556 232.087 723.124 245.519 706.556 245.519H613.796" stroke="white" stroke-width="1.5"/>
<path d="M491.037 368.278H398.278C381.709 368.278 368.278 381.709 368.278 398.278V491.037" stroke="white" stroke-width="1.5"/>
<path d="M245.519 122.759H152.759C136.191 122.759 122.759 136.191 122.759 152.759V245.519" stroke="white" stroke-width="1.5"/>
<path d="M613.796 491.037H521.037C504.469 491.037 491.037 504.469 491.037 521.037V613.796" stroke="white" stroke-width="1.5"/>
<path d="M368.278 245.519H275.519C258.95 245.519 245.519 258.95 245.519 275.519V368.278" stroke="white" stroke-width="1.5"/>
<path d="M736.556 368.278H643.796C627.228 368.278 613.796 381.709 613.796 398.278V491.037" stroke="#FFF509" stroke-width="1.5"/>
<path d="M491.037 122.759H398.278C381.709 122.759 368.278 136.191 368.278 152.759V245.519" stroke="white" stroke-width="1.5"/>
<path d="M613.796 245.519H521.037C504.469 245.519 491.037 258.95 491.037 275.519V368.278" stroke="white" stroke-width="1.5"/>
<path d="M982.074 368.278H889.315C872.746 368.278 859.315 381.709 859.315 398.278V491.037" stroke="white" stroke-width="1.5"/>
<path d="M736.556 122.759H643.796C627.228 122.759 613.796 136.191 613.796 152.759V245.519" stroke="white" stroke-width="1.5"/>
<path d="M1104.83 491.037H1012.07C995.506 491.037 982.074 504.469 982.074 521.037V613.796" stroke="white" stroke-width="1.5"/>
<path d="M859.315 245.519H766.556C749.987 245.519 736.556 258.95 736.556 275.519V368.278" stroke="white" stroke-width="1.5"/>
<path d="M521.27 308C522.594 305.938 523.801 304.121 524.867 302.551L528.488 308H530.551V291.195H528.629V304.59L525.992 300.652C525.898 300.488 525.852 300.172 525.852 299.715V298.637H523.93V299.715C523.93 300.125 523.871 300.441 523.742 300.652L521.117 304.566V291.195H519.207V308H521.27ZM544.473 308V306.078H535.039V300.559H544.473V298.637H535.039V293.117H544.473V291.195H533.129V308H544.473ZM554.961 308C555.91 308 556.719 307.66 557.387 306.992C558.055 306.324 558.395 305.516 558.395 304.566V302.094C558.395 301.168 558.043 300.324 557.34 299.574C558.043 298.824 558.395 298.004 558.395 297.125V294.582C558.395 293.633 558.055 292.836 557.387 292.18C556.719 291.523 555.91 291.195 554.961 291.195H547.051V308H554.961ZM548.961 300.559H554.961C555.371 300.559 555.734 300.711 556.027 301.004C556.32 301.297 556.473 301.66 556.473 302.094V304.566C556.473 304.977 556.32 305.34 556.016 305.633C555.723 305.926 555.371 306.078 554.961 306.078H548.961V300.559ZM548.961 293.117H554.961C555.371 293.117 555.734 293.258 556.027 293.551C556.32 293.844 556.473 294.195 556.473 294.629V297.148C556.473 297.582 556.32 297.934 556.027 298.215C555.734 298.496 555.371 298.637 554.961 298.637H548.961V293.117ZM563.492 304.262V308H565.402V304.262H567.875V308H569.797V304.262H572.316V302.34H569.797V296.738H572.316V294.828H569.797V291.195H567.875V294.828H565.402V291.195H563.492V294.828H560.996V296.738H563.492V302.34H560.973V304.262H563.492ZM565.402 296.738H567.875V302.34H565.402V296.738ZM574.895 304.566C574.895 305.516 575.223 306.336 575.879 307.004C576.547 307.672 577.344 308 578.293 308H582.805C583.754 308 584.562 307.66 585.23 306.992C585.898 306.324 586.238 305.516 586.238 304.566V302.117C586.238 301.238 585.898 300.395 585.207 299.598C585.898 298.836 586.238 298.016 586.238 297.125V294.652C586.238 293.691 585.898 292.871 585.23 292.203C584.562 291.535 583.754 291.195 582.805 291.195H578.316C577.367 291.195 576.559 291.535 575.891 292.203C575.223 292.871 574.895 293.691 574.895 294.652H576.805C576.805 294.219 576.945 293.855 577.238 293.562C577.531 293.27 577.883 293.117 578.293 293.117H582.805C583.215 293.117 583.566 293.281 583.859 293.598C584.164 293.914 584.316 294.266 584.316 294.652V297.125C584.316 297.547 584.164 297.91 583.871 298.203C583.578 298.496 583.215 298.637 582.805 298.637H578.293V300.559H582.805C583.215 300.559 583.566 300.723 583.859 301.039C584.164 301.355 584.316 301.719 584.316 302.117V304.566C584.316 304.977 584.164 305.34 583.859 305.633C583.566 305.926 583.215 306.078 582.805 306.078H578.293C577.883 306.078 577.531 305.926 577.238 305.633C576.945 305.34 576.805 304.977 576.805 304.566H574.895Z" fill="white"/>
<path d="M643.711 438.157C645.035 436.095 646.242 434.278 647.309 432.708L650.93 438.157H652.992V421.353H651.071V434.747L648.434 430.81C648.34 430.646 648.293 430.329 648.293 429.872V428.794H646.371V429.872C646.371 430.282 646.313 430.599 646.184 430.81L643.559 434.724V421.353H641.649V438.157H643.711ZM666.914 438.157V436.235H657.481V430.716H666.914V428.794H657.481V423.274H666.914V421.353H655.571V438.157H666.914ZM677.403 438.157C678.352 438.157 679.16 437.817 679.828 437.149C680.496 436.481 680.836 435.673 680.836 434.724V432.251C680.836 431.325 680.485 430.481 679.781 429.731C680.485 428.981 680.836 428.161 680.836 427.282V424.739C680.836 423.79 680.496 422.993 679.828 422.337C679.16 421.681 678.352 421.353 677.403 421.353H669.492V438.157H677.403ZM671.403 430.716H677.403C677.813 430.716 678.176 430.868 678.469 431.161C678.762 431.454 678.914 431.817 678.914 432.251V434.724C678.914 435.134 678.762 435.497 678.457 435.79C678.164 436.083 677.813 436.235 677.403 436.235H671.403V430.716ZM671.403 423.274H677.403C677.813 423.274 678.176 423.415 678.469 423.708C678.762 424.001 678.914 424.353 678.914 424.786V427.306C678.914 427.739 678.762 428.091 678.469 428.372C678.176 428.653 677.813 428.794 677.403 428.794H671.403V423.274ZM685.934 434.419V438.157H687.844V434.419H690.317V438.157H692.239V434.419H694.758V432.497H692.239V426.896H694.758V424.985H692.239V421.353H690.317V424.985H687.844V421.353H685.934V424.985H683.438V426.896H685.934V432.497H683.414V434.419H685.934ZM687.844 426.896H690.317V432.497H687.844V426.896ZM708.68 438.157V436.235H699.246V435.45C699.246 434.36 700.008 433.341 701.121 432.579C702.235 431.794 703.617 431.044 704.965 430.235C706.313 429.403 707.461 428.583 708.153 427.376C708.504 426.778 708.68 426.134 708.68 425.442C708.68 424.329 708.281 423.368 707.485 422.56C706.688 421.751 705.727 421.353 704.602 421.353H701.391C700.278 421.353 699.328 421.751 698.531 422.548C697.735 423.345 697.336 424.306 697.336 425.419H699.246C699.246 424.833 699.457 424.329 699.879 423.907C700.301 423.485 700.805 423.274 701.391 423.274H704.602C705.199 423.274 705.703 423.485 706.125 423.919C706.547 424.353 706.758 424.856 706.758 425.442C706.758 427.317 704.403 428.466 702.047 429.837C700.875 430.458 699.692 431.302 698.801 432.146C697.922 432.978 697.336 434.173 697.336 435.45V438.157H708.68Z" fill="white"/>
<path d="M773.888 315.22V318.958H775.799V315.22H778.271V318.958H780.193V315.22H782.713V313.298H780.193V307.697H782.713V305.787H780.193V302.154H778.271V305.787H775.799V302.154H773.888V305.787H771.392V307.697H773.888V313.298H771.369V315.22H773.888ZM775.799 307.697H778.271V313.298H775.799V307.697ZM787.201 318.958V305.998L794.736 318.958H796.635V302.154H794.713V315.115L787.201 302.154H785.291V318.958H787.201ZM801.123 318.958V311.517H810.556V309.595H801.123V304.076H810.556V302.154H799.213V318.958H801.123ZM817.834 304.076V318.958H819.779V304.076H824.478V302.154H813.135V304.076H817.834Z" fill="white"/>
<path d="M889.727 434.262V438H891.637V434.262H894.109V438H896.031V434.262H898.551V432.34H896.031V426.738H898.551V424.828H896.031V421.195H894.109V424.828H891.637V421.195H889.727V424.828H887.23V426.738H889.727V432.34H887.207V434.262H889.727ZM891.637 426.738H894.109V432.34H891.637V426.738ZM901.129 434.566C901.129 435.516 901.457 436.336 902.125 437.004C902.793 437.672 903.602 438 904.551 438H909.039C909.988 438 910.797 437.66 911.465 436.992C912.133 436.324 912.473 435.516 912.473 434.566H910.551C910.551 434.977 910.398 435.34 910.094 435.633C909.801 435.926 909.449 436.078 909.039 436.078H904.551C904.141 436.078 903.777 435.926 903.484 435.633C903.191 435.34 903.039 434.977 903.039 434.566V424.676C903.039 424.242 903.191 423.879 903.484 423.574C903.777 423.27 904.141 423.117 904.551 423.117H909.039C909.449 423.117 909.812 423.27 910.105 423.574C910.398 423.879 910.551 424.242 910.551 424.676H912.473C912.473 423.715 912.133 422.895 911.465 422.215C910.797 421.535 909.988 421.195 909.039 421.195H904.551C903.602 421.195 902.793 421.535 902.125 422.215C901.457 422.895 901.129 423.715 901.129 424.676V434.566ZM926.418 438V436.078H916.961V421.195H915.051V438H926.418ZM928.973 434.566C928.973 435.516 929.301 436.336 929.969 437.004C930.637 437.672 931.457 438 932.418 438H936.883C937.832 438 938.641 437.66 939.309 436.992C939.977 436.324 940.316 435.516 940.316 434.566V421.195H938.395V434.566C938.395 434.977 938.242 435.34 937.938 435.633C937.645 435.926 937.293 436.078 936.883 436.078H932.418C931.996 436.078 931.633 435.926 931.328 435.633C931.035 435.34 930.883 434.977 930.883 434.566V421.195H928.973V434.566ZM950.805 438C951.754 438 952.562 437.66 953.23 436.992C953.898 436.324 954.238 435.516 954.238 434.566V432.094C954.238 431.168 953.887 430.324 953.184 429.574C953.887 428.824 954.238 428.004 954.238 427.125V424.582C954.238 423.633 953.898 422.836 953.23 422.18C952.562 421.523 951.754 421.195 950.805 421.195H942.895V438H950.805ZM944.805 430.559H950.805C951.215 430.559 951.578 430.711 951.871 431.004C952.164 431.297 952.316 431.66 952.316 432.094V434.566C952.316 434.977 952.164 435.34 951.859 435.633C951.566 435.926 951.215 436.078 950.805 436.078H944.805V430.559ZM944.805 423.117H950.805C951.215 423.117 951.578 423.258 951.871 423.551C952.164 423.844 952.316 424.195 952.316 424.629V427.148C952.316 427.582 952.164 427.934 951.871 428.215C951.578 428.496 951.215 428.637 950.805 428.637H944.805V423.117Z" fill="white"/>
</svg>
