<svg width="2043" height="1038" viewBox="0 0 2043 1038" fill="none" xmlns="http://www.w3.org/2000/svg">
<path d="M130.375 623.427V1017C130.375 1028.05 139.329 1037 150.375 1037H1036.55" stroke="white" stroke-width="1.5"/>
<path d="M1036.55 1037L2042.87 1037" stroke="white" stroke-width="1.5" stroke-dasharray="12 12"/>
<path d="M130.375 378.363V474.484C130.375 491.052 116.944 504.484 100.375 504.484H1" stroke="white" stroke-width="1.5"/>
<path d="M259.75 252.242V348.363C259.75 364.932 246.319 378.363 229.75 378.363H130.375" stroke="white" stroke-width="1.5"/>
<path d="M389.126 378.363V474.484C389.126 491.052 375.694 504.484 359.126 504.484H259.75" stroke="white" stroke-width="1.5"/>
<path d="M130.375 126.121V222.242C130.375 238.811 116.944 252.242 100.375 252.242H1" stroke="#FFF509" stroke-width="1.5"/>
<path d="M518.501 252.242V348.363C518.501 364.932 505.07 378.363 488.501 378.363H389.126" stroke="white" stroke-width="1.5"/>
<path d="M259.75 0V96.121C259.75 112.69 246.319 126.121 229.75 126.121H130.375" stroke="white" stroke-width="1.5"/>
<path d="M647.876 378.363V474.484C647.876 491.052 634.445 504.484 617.876 504.484H518.501" stroke="white" stroke-width="1.5"/>
<path d="M389.126 126.121V222.242C389.126 238.811 375.694 252.242 359.126 252.242H259.75" stroke="white" stroke-width="1.5"/>
<path d="M130.375 378.363H31C14.4315 378.363 1 391.794 1 408.363V504.484" stroke="white" stroke-width="1.5"/>
<path d="M259.75 504.484H160.375C143.806 504.484 130.375 517.915 130.375 534.484V630.605" stroke="white" stroke-width="1.5"/>
<path d="M389.126 378.363H289.75C273.182 378.363 259.75 391.794 259.75 408.363V504.484" stroke="#FFF509" stroke-width="1.5"/>
<path d="M130.375 126.121H31C14.4315 126.121 1 139.553 1 156.121V252.242" stroke="white" stroke-width="1.5"/>
<path d="M259.75 252.242H160.375C143.806 252.242 130.375 265.674 130.375 282.242V378.363" stroke="white" stroke-width="1.5"/>
<path d="M647.876 378.363H548.501C531.932 378.363 518.501 391.794 518.501 408.363V504.484" stroke="white" stroke-width="1.5"/>
<path d="M389.126 126.121H289.75C273.182 126.121 259.75 139.553 259.75 156.121V252.242" stroke="white" stroke-width="1.5"/>
<path d="M518.501 252.242H419.126C402.557 252.242 389.126 265.674 389.126 282.242V378.363" stroke="white" stroke-width="1.5"/>
<path d="M163.421 326C164.746 323.938 165.953 322.121 167.019 320.551L170.64 326H172.703V309.195H170.781V322.59L168.144 318.652C168.05 318.488 168.003 318.172 168.003 317.715V316.637H166.082V317.715C166.082 318.125 166.023 318.441 165.894 318.652L163.269 322.566V309.195H161.359V326H163.421ZM186.625 326V324.078H177.191V318.559H186.625V316.637H177.191V311.117H186.625V309.195H175.281V326H186.625ZM197.113 326C198.062 326 198.871 325.66 199.539 324.992C200.207 324.324 200.546 323.516 200.546 322.566V320.094C200.546 319.168 200.195 318.324 199.492 317.574C200.195 316.824 200.546 316.004 200.546 315.125V312.582C200.546 311.633 200.207 310.836 199.539 310.18C198.871 309.523 198.062 309.195 197.113 309.195H189.203V326H197.113ZM191.113 318.559H197.113C197.523 318.559 197.886 318.711 198.179 319.004C198.472 319.297 198.625 319.66 198.625 320.094V322.566C198.625 322.977 198.472 323.34 198.168 323.633C197.875 323.926 197.523 324.078 197.113 324.078H191.113V318.559ZM191.113 311.117H197.113C197.523 311.117 197.886 311.258 198.179 311.551C198.472 311.844 198.625 312.195 198.625 312.629V315.148C198.625 315.582 198.472 315.934 198.179 316.215C197.886 316.496 197.523 316.637 197.113 316.637H191.113V311.117ZM205.644 322.262V326H207.554V322.262H210.027V326H211.949V322.262H214.468V320.34H211.949V314.738H214.468V312.828H211.949V309.195H210.027V312.828H207.554V309.195H205.644V312.828H203.148V314.738H205.644V320.34H203.125V322.262H205.644ZM207.554 314.738H210.027V320.34H207.554V314.738ZM217.046 322.566C217.046 323.516 217.375 324.336 218.031 325.004C218.699 325.672 219.496 326 220.445 326H224.957C225.906 326 226.714 325.66 227.382 324.992C228.05 324.324 228.39 323.516 228.39 322.566V320.117C228.39 319.238 228.05 318.395 227.359 317.598C228.05 316.836 228.39 316.016 228.39 315.125V312.652C228.39 311.691 228.05 310.871 227.382 310.203C226.714 309.535 225.906 309.195 224.957 309.195H220.468C219.519 309.195 218.711 309.535 218.043 310.203C217.375 310.871 217.046 311.691 217.046 312.652H218.957C218.957 312.219 219.097 311.855 219.39 311.562C219.683 311.27 220.035 311.117 220.445 311.117H224.957C225.367 311.117 225.718 311.281 226.011 311.598C226.316 311.914 226.468 312.266 226.468 312.652V315.125C226.468 315.547 226.316 315.91 226.023 316.203C225.73 316.496 225.367 316.637 224.957 316.637H220.445V318.559H224.957C225.367 318.559 225.718 318.723 226.011 319.039C226.316 319.355 226.468 319.719 226.468 320.117V322.566C226.468 322.977 226.316 323.34 226.011 323.633C225.718 323.926 225.367 324.078 224.957 324.078H220.445C220.035 324.078 219.683 323.926 219.39 323.633C219.097 323.34 218.957 322.977 218.957 322.566H217.046Z" fill="white"/>
<path d="M292.421 453C293.746 450.938 294.953 449.121 296.019 447.551L299.64 453H301.703V436.195H299.781V449.59L297.144 445.652C297.05 445.488 297.003 445.172 297.003 444.715V443.637H295.082V444.715C295.082 445.125 295.023 445.441 294.894 445.652L292.269 449.566V436.195H290.359V453H292.421ZM315.625 453V451.078H306.191V445.559H315.625V443.637H306.191V438.117H315.625V436.195H304.281V453H315.625ZM326.113 453C327.062 453 327.871 452.66 328.539 451.992C329.207 451.324 329.546 450.516 329.546 449.566V447.094C329.546 446.168 329.195 445.324 328.492 444.574C329.195 443.824 329.546 443.004 329.546 442.125V439.582C329.546 438.633 329.207 437.836 328.539 437.18C327.871 436.523 327.062 436.195 326.113 436.195H318.203V453H326.113ZM320.113 445.559H326.113C326.523 445.559 326.886 445.711 327.179 446.004C327.472 446.297 327.625 446.66 327.625 447.094V449.566C327.625 449.977 327.472 450.34 327.168 450.633C326.875 450.926 326.523 451.078 326.113 451.078H320.113V445.559ZM320.113 438.117H326.113C326.523 438.117 326.886 438.258 327.179 438.551C327.472 438.844 327.625 439.195 327.625 439.629V442.148C327.625 442.582 327.472 442.934 327.179 443.215C326.886 443.496 326.523 443.637 326.113 443.637H320.113V438.117ZM334.644 449.262V453H336.554V449.262H339.027V453H340.949V449.262H343.468V447.34H340.949V441.738H343.468V439.828H340.949V436.195H339.027V439.828H336.554V436.195H334.644V439.828H332.148V441.738H334.644V447.34H332.125V449.262H334.644ZM336.554 441.738H339.027V447.34H336.554V441.738ZM357.39 453V451.078H347.957V450.293C347.957 449.203 348.718 448.184 349.832 447.422C350.945 446.637 352.328 445.887 353.675 445.078C355.023 444.246 356.171 443.426 356.863 442.219C357.214 441.621 357.39 440.977 357.39 440.285C357.39 439.172 356.992 438.211 356.195 437.402C355.398 436.594 354.437 436.195 353.312 436.195H350.101C348.988 436.195 348.039 436.594 347.242 437.391C346.445 438.188 346.046 439.148 346.046 440.262H347.957C347.957 439.676 348.168 439.172 348.589 438.75C349.011 438.328 349.515 438.117 350.101 438.117H353.312C353.91 438.117 354.414 438.328 354.836 438.762C355.257 439.195 355.468 439.699 355.468 440.285C355.468 442.16 353.113 443.309 350.757 444.68C349.586 445.301 348.402 446.145 347.511 446.988C346.632 447.82 346.046 449.016 346.046 450.293V453H357.39Z" fill="white"/>
<path d="M429.462 322.262V326H431.372V322.262H433.845V326H435.767V322.262H438.286V320.34H435.767V314.738H438.286V312.828H435.767V309.195H433.845V312.828H431.372V309.195H429.462V312.828H426.966V314.738H429.462V320.34H426.943V322.262H429.462ZM431.372 314.738H433.845V320.34H431.372V314.738ZM442.775 326V313.039L450.31 326H452.208V309.195H450.286V322.156L442.775 309.195H440.865V326H442.775ZM456.697 326V318.559H466.13V316.637H456.697V311.117H466.13V309.195H454.786V326H456.697ZM473.407 311.117V326H475.353V311.117H480.052V309.195H468.708V311.117H473.407Z" fill="white"/>
<path d="M551.878 454.262V458H553.789V454.262H556.261V458H558.183V454.262H560.703V452.34H558.183V446.738H560.703V444.828H558.183V441.195H556.261V444.828H553.789V441.195H551.878V444.828H549.382V446.738H551.878V452.34H549.359V454.262H551.878ZM553.789 446.738H556.261V452.34H553.789V446.738ZM563.281 454.566C563.281 455.516 563.609 456.336 564.277 457.004C564.945 457.672 565.753 458 566.703 458H571.191C572.14 458 572.949 457.66 573.617 456.992C574.285 456.324 574.625 455.516 574.625 454.566H572.703C572.703 454.977 572.55 455.34 572.246 455.633C571.953 455.926 571.601 456.078 571.191 456.078H566.703C566.293 456.078 565.929 455.926 565.636 455.633C565.343 455.34 565.191 454.977 565.191 454.566V444.676C565.191 444.242 565.343 443.879 565.636 443.574C565.929 443.27 566.293 443.117 566.703 443.117H571.191C571.601 443.117 571.964 443.27 572.257 443.574C572.55 443.879 572.703 444.242 572.703 444.676H574.625C574.625 443.715 574.285 442.895 573.617 442.215C572.949 441.535 572.14 441.195 571.191 441.195H566.703C565.753 441.195 564.945 441.535 564.277 442.215C563.609 442.895 563.281 443.715 563.281 444.676V454.566ZM588.57 458V456.078H579.113V441.195H577.203V458H588.57ZM591.125 454.566C591.125 455.516 591.453 456.336 592.121 457.004C592.789 457.672 593.609 458 594.57 458H599.035C599.984 458 600.793 457.66 601.461 456.992C602.128 456.324 602.468 455.516 602.468 454.566V441.195H600.546V454.566C600.546 454.977 600.394 455.34 600.089 455.633C599.796 455.926 599.445 456.078 599.035 456.078H594.57C594.148 456.078 593.785 455.926 593.48 455.633C593.187 455.34 593.035 454.977 593.035 454.566V441.195H591.125V454.566ZM612.957 458C613.906 458 614.714 457.66 615.382 456.992C616.05 456.324 616.39 455.516 616.39 454.566V452.094C616.39 451.168 616.039 450.324 615.336 449.574C616.039 448.824 616.39 448.004 616.39 447.125V444.582C616.39 443.633 616.05 442.836 615.382 442.18C614.714 441.523 613.906 441.195 612.957 441.195H605.046V458H612.957ZM606.957 450.559H612.957C613.367 450.559 613.73 450.711 614.023 451.004C614.316 451.297 614.468 451.66 614.468 452.094V454.566C614.468 454.977 614.316 455.34 614.011 455.633C613.718 455.926 613.367 456.078 612.957 456.078H606.957V450.559ZM606.957 443.117H612.957C613.367 443.117 613.73 443.258 614.023 443.551C614.316 443.844 614.468 444.195 614.468 444.629V447.148C614.468 447.582 614.316 447.934 614.023 448.215C613.73 448.496 613.367 448.637 612.957 448.637H606.957V443.117Z" fill="white"/>
</svg>
