<svg width="3508" height="1559" viewBox="0 0 3508 1559" fill="none" xmlns="http://www.w3.org/2000/svg">
<path d="M747.076 936.644V1538C747.076 1549.05 756.03 1558 767.076 1558H2055.24" stroke="white" stroke-width="1.5"/>
<path d="M2055.24 1558L3508 1558" stroke="white" stroke-width="1.5" stroke-dasharray="12 12"/>
<path d="M560.307 378.971V538.456C560.307 555.025 546.875 568.456 530.307 568.456H373.538" stroke="white" stroke-width="1.5"/>
<path d="M186.769 0V159.486C186.769 176.054 173.337 189.486 156.769 189.486H0" stroke="white" stroke-width="1.5"/>
<path d="M747.076 568.457V727.942C747.076 744.511 733.644 757.942 717.076 757.942H560.307" stroke="white" stroke-width="1.5"/>
<path d="M373.538 189.485V348.971C373.538 365.539 360.106 378.971 343.538 378.971H186.769" stroke="white" stroke-width="1.5"/>
<path d="M933.845 378.971V538.456C933.845 555.025 920.413 568.456 903.845 568.456H747.076" stroke="#4C4C4C" stroke-width="1.5"/>
<path d="M560.307 0V159.486C560.307 176.054 546.875 189.486 530.307 189.486H373.538" stroke="white" stroke-width="1.5"/>
<path d="M1120.61 568.457V727.942C1120.61 744.511 1107.18 757.942 1090.61 757.942H933.845" stroke="white" stroke-width="1.5"/>
<path d="M747.076 189.485V348.971C747.076 365.539 733.644 378.971 717.076 378.971H560.307" stroke="#FFF509" stroke-width="1.5"/>
<path d="M1307.38 378.971V538.456C1307.38 555.025 1293.95 568.456 1277.38 568.456H1120.61" stroke="white" stroke-width="1.5"/>
<path d="M933.845 0V159.486C933.845 176.054 920.413 189.486 903.845 189.486H747.076" stroke="white" stroke-width="1.5"/>
<path d="M1494.15 568.457V727.942C1494.15 744.511 1480.72 757.942 1464.15 757.942H1307.38" stroke="white" stroke-width="1.5"/>
<path d="M1120.61 189.485V348.971C1120.61 365.539 1107.18 378.971 1090.61 378.971H933.845" stroke="white" stroke-width="1.5"/>
<path d="M747.076 568.457H590.307C573.738 568.457 560.307 581.888 560.307 598.457V757.942" stroke="white" stroke-width="1.5"/>
<path d="M373.538 189.485H216.769C200.2 189.485 186.769 202.917 186.769 219.485V378.971" stroke="white" stroke-width="1.5"/>
<path d="M933.845 757.942H777.076C760.507 757.942 747.076 771.374 747.076 787.942V947.428" stroke="white" stroke-width="1.5"/>
<path d="M560.307 378.971H403.538C386.969 378.971 373.538 392.402 373.538 408.971V568.456" stroke="white" stroke-width="1.5"/>
<path d="M1120.61 568.457H963.845C947.276 568.457 933.845 581.888 933.845 598.457V757.942" stroke="#FFF509" stroke-width="1.5"/>
<path d="M747.076 189.485H590.307C573.738 189.485 560.307 202.917 560.307 219.485V378.971" stroke="white" stroke-width="1.5"/>
<path d="M933.845 378.971H777.076C760.507 378.971 747.076 392.402 747.076 408.971V568.456" stroke="white" stroke-width="1.5"/>
<path d="M1494.15 568.457H1337.38C1320.81 568.457 1307.38 581.888 1307.38 598.457V757.942" stroke="white" stroke-width="1.5"/>
<path d="M1120.61 189.485H963.845C947.276 189.485 933.845 202.917 933.845 219.485V378.971" stroke="white" stroke-width="1.5"/>
<path d="M1680.92 757.942H1524.15C1507.58 757.942 1494.15 771.374 1494.15 787.942V947.428" stroke="white" stroke-width="1.5"/>
<path d="M1307.38 378.971H1150.61C1134.05 378.971 1120.61 392.402 1120.61 408.971V568.456" stroke="white" stroke-width="1.5"/>
<path d="M822.487 464C823.812 461.938 825.019 460.121 826.085 458.551L829.706 464H831.769V447.195H829.847V460.59L827.21 456.652C827.116 456.488 827.07 456.172 827.07 455.715V454.637H825.148V455.715C825.148 456.125 825.089 456.441 824.96 456.652L822.335 460.566V447.195H820.425V464H822.487ZM845.691 464V462.078H836.257V456.559H845.691V454.637H836.257V449.117H845.691V447.195H834.347V464H845.691ZM856.179 464C857.128 464 857.937 463.66 858.605 462.992C859.273 462.324 859.612 461.516 859.612 460.566V458.094C859.612 457.168 859.261 456.324 858.558 455.574C859.261 454.824 859.612 454.004 859.612 453.125V450.582C859.612 449.633 859.273 448.836 858.605 448.18C857.937 447.523 857.128 447.195 856.179 447.195H848.269V464H856.179ZM850.179 456.559H856.179C856.589 456.559 856.952 456.711 857.245 457.004C857.538 457.297 857.691 457.66 857.691 458.094V460.566C857.691 460.977 857.538 461.34 857.234 461.633C856.941 461.926 856.589 462.078 856.179 462.078H850.179V456.559ZM850.179 449.117H856.179C856.589 449.117 856.952 449.258 857.245 449.551C857.538 449.844 857.691 450.195 857.691 450.629V453.148C857.691 453.582 857.538 453.934 857.245 454.215C856.952 454.496 856.589 454.637 856.179 454.637H850.179V449.117ZM864.71 460.262V464H866.62V460.262H869.093V464H871.015V460.262H873.534V458.34H871.015V452.738H873.534V450.828H871.015V447.195H869.093V450.828H866.62V447.195H864.71V450.828H862.214V452.738H864.71V458.34H862.191V460.262H864.71ZM866.62 452.738H869.093V458.34H866.62V452.738ZM876.113 460.566C876.113 461.516 876.441 462.336 877.097 463.004C877.765 463.672 878.562 464 879.511 464H884.023C884.972 464 885.78 463.66 886.448 462.992C887.116 462.324 887.456 461.516 887.456 460.566V458.117C887.456 457.238 887.116 456.395 886.425 455.598C887.116 454.836 887.456 454.016 887.456 453.125V450.652C887.456 449.691 887.116 448.871 886.448 448.203C885.78 447.535 884.972 447.195 884.023 447.195H879.534C878.585 447.195 877.777 447.535 877.109 448.203C876.441 448.871 876.113 449.691 876.113 450.652H878.023C878.023 450.219 878.163 449.855 878.456 449.562C878.749 449.27 879.101 449.117 879.511 449.117H884.023C884.433 449.117 884.784 449.281 885.077 449.598C885.382 449.914 885.534 450.266 885.534 450.652V453.125C885.534 453.547 885.382 453.91 885.089 454.203C884.796 454.496 884.433 454.637 884.023 454.637H879.511V456.559H884.023C884.433 456.559 884.784 456.723 885.077 457.039C885.382 457.355 885.534 457.719 885.534 458.117V460.566C885.534 460.977 885.382 461.34 885.077 461.633C884.784 461.926 884.433 462.078 884.023 462.078H879.511C879.101 462.078 878.749 461.926 878.456 461.633C878.163 461.34 878.023 460.977 878.023 460.566H876.113Z" fill="white"/>
<path d="M1008.77 664.905C1010.1 662.842 1011.3 661.026 1012.37 659.456L1015.99 664.905H1018.05V648.1H1016.13V661.495L1013.5 657.557C1013.4 657.393 1013.36 657.077 1013.36 656.62V655.542H1011.43V656.62C1011.43 657.03 1011.37 657.346 1011.25 657.557L1008.62 661.471V648.1H1006.71V664.905H1008.77ZM1031.98 664.905V662.983H1022.54V657.463H1031.98V655.542H1022.54V650.022H1031.98V648.1H1020.63V664.905H1031.98ZM1042.46 664.905C1043.41 664.905 1044.22 664.565 1044.89 663.897C1045.56 663.229 1045.9 662.42 1045.9 661.471V658.999C1045.9 658.073 1045.55 657.229 1044.84 656.479C1045.55 655.729 1045.9 654.909 1045.9 654.03V651.487C1045.9 650.538 1045.56 649.741 1044.89 649.084C1044.22 648.428 1043.41 648.1 1042.46 648.1H1034.55V664.905H1042.46ZM1036.46 657.463H1042.46C1042.87 657.463 1043.24 657.616 1043.53 657.909C1043.82 658.202 1043.98 658.565 1043.98 658.999V661.471C1043.98 661.881 1043.82 662.245 1043.52 662.538C1043.23 662.831 1042.87 662.983 1042.46 662.983H1036.46V657.463ZM1036.46 650.022H1042.46C1042.87 650.022 1043.24 650.163 1043.53 650.456C1043.82 650.749 1043.98 651.1 1043.98 651.534V654.053C1043.98 654.487 1043.82 654.838 1043.53 655.12C1043.24 655.401 1042.87 655.542 1042.46 655.542H1036.46V650.022ZM1051 661.167V664.905H1052.91V661.167H1055.38V664.905H1057.3V661.167H1059.82V659.245H1057.3V653.643H1059.82V651.733H1057.3V648.1H1055.38V651.733H1052.91V648.1H1051V651.733H1048.5V653.643H1051V659.245H1048.48V661.167H1051ZM1052.91 653.643H1055.38V659.245H1052.91V653.643ZM1073.74 664.905V662.983H1064.31V662.198C1064.31 661.108 1065.07 660.088 1066.18 659.327C1067.3 658.542 1068.68 657.792 1070.03 656.983C1071.37 656.151 1072.52 655.331 1073.21 654.124C1073.57 653.526 1073.74 652.881 1073.74 652.19C1073.74 651.077 1073.34 650.116 1072.55 649.307C1071.75 648.499 1070.79 648.1 1069.66 648.1H1066.45C1065.34 648.1 1064.39 648.499 1063.59 649.295C1062.8 650.092 1062.4 651.053 1062.4 652.167H1064.31C1064.31 651.581 1064.52 651.077 1064.94 650.655C1065.36 650.233 1065.87 650.022 1066.45 650.022H1069.66C1070.26 650.022 1070.77 650.233 1071.19 650.667C1071.61 651.1 1071.82 651.604 1071.82 652.19C1071.82 654.065 1069.46 655.213 1067.11 656.584C1065.94 657.206 1064.75 658.049 1063.86 658.893C1062.98 659.725 1062.4 660.92 1062.4 662.198V664.905H1073.74Z" fill="white"/>
<path d="M1200.36 477.177V480.915H1202.27V477.177H1204.74V480.915H1206.66V477.177H1209.18V475.255H1206.66V469.654H1209.18V467.743H1206.66V464.111H1204.74V467.743H1202.27V464.111H1200.36V467.743H1197.86V469.654H1200.36V475.255H1197.84V477.177H1200.36ZM1202.27 469.654H1204.74V475.255H1202.27V469.654ZM1213.67 480.915V467.954L1221.21 480.915H1223.1V464.111H1221.18V477.072L1213.67 464.111H1211.76V480.915H1213.67ZM1227.59 480.915V473.474H1237.03V471.552H1227.59V466.032H1237.03V464.111H1225.68V480.915H1227.59ZM1244.3 466.032V480.915H1246.25V466.032H1250.95V464.111H1239.6V466.032H1244.3Z" fill="white"/>
<path d="M1382.83 660.924V664.662H1384.74V660.924H1387.21V664.662H1389.13V660.924H1391.65V659.002H1389.13V653.4H1391.65V651.49H1389.13V647.857H1387.21V651.49H1384.74V647.857H1382.83V651.49H1380.33V653.4H1382.83V659.002H1380.31V660.924H1382.83ZM1384.74 653.4H1387.21V659.002H1384.74V653.4ZM1394.23 661.228C1394.23 662.177 1394.56 662.998 1395.23 663.666C1395.89 664.334 1396.7 664.662 1397.65 664.662H1402.14C1403.09 664.662 1403.9 664.322 1404.57 663.654C1405.23 662.986 1405.57 662.177 1405.57 661.228H1403.65C1403.65 661.638 1403.5 662.002 1403.2 662.295C1402.9 662.588 1402.55 662.74 1402.14 662.74H1397.65C1397.24 662.74 1396.88 662.588 1396.59 662.295C1396.29 662.002 1396.14 661.638 1396.14 661.228V651.338C1396.14 650.904 1396.29 650.541 1396.59 650.236C1396.88 649.931 1397.24 649.779 1397.65 649.779H1402.14C1402.55 649.779 1402.91 649.931 1403.21 650.236C1403.5 650.541 1403.65 650.904 1403.65 651.338H1405.57C1405.57 650.377 1405.23 649.556 1404.57 648.877C1403.9 648.197 1403.09 647.857 1402.14 647.857H1397.65C1396.7 647.857 1395.89 648.197 1395.23 648.877C1394.56 649.556 1394.23 650.377 1394.23 651.338V661.228ZM1419.52 664.662V662.74H1410.06V647.857H1408.15V664.662H1419.52ZM1422.07 661.228C1422.07 662.177 1422.4 662.998 1423.07 663.666C1423.74 664.334 1424.56 664.662 1425.52 664.662H1429.98C1430.93 664.662 1431.74 664.322 1432.41 663.654C1433.08 662.986 1433.42 662.177 1433.42 661.228V647.857H1431.5V661.228C1431.5 661.638 1431.34 662.002 1431.04 662.295C1430.75 662.588 1430.39 662.74 1429.98 662.74H1425.52C1425.1 662.74 1424.73 662.588 1424.43 662.295C1424.14 662.002 1423.98 661.638 1423.98 661.228V647.857H1422.07V661.228ZM1443.91 664.662C1444.86 664.662 1445.66 664.322 1446.33 663.654C1447 662.986 1447.34 662.177 1447.34 661.228V658.756C1447.34 657.83 1446.99 656.986 1446.29 656.236C1446.99 655.486 1447.34 654.666 1447.34 653.787V651.244C1447.34 650.295 1447 649.498 1446.33 648.842C1445.66 648.185 1444.86 647.857 1443.91 647.857H1436V664.662H1443.91ZM1437.91 657.22H1443.91C1444.32 657.22 1444.68 657.373 1444.97 657.666C1445.27 657.959 1445.42 658.322 1445.42 658.756V661.228C1445.42 661.638 1445.27 662.002 1444.96 662.295C1444.67 662.588 1444.32 662.74 1443.91 662.74H1437.91V657.22ZM1437.91 649.779H1443.91C1444.32 649.779 1444.68 649.92 1444.97 650.213C1445.27 650.506 1445.42 650.857 1445.42 651.291V653.81C1445.42 654.244 1445.27 654.595 1444.97 654.877C1444.68 655.158 1444.32 655.299 1443.91 655.299H1437.91V649.779Z" fill="white"/>
</svg>
