<svg width="60" height="73" viewBox="0 0 60 73" fill="none" xmlns="http://www.w3.org/2000/svg">
<path d="M18.1738 7.39344C20.4108 9.08553 22.6407 10.7858 24.8843 12.4682C32.3821 18.0907 39.884 23.7063 47.3908 29.3164C47.7646 29.5957 47.8223 29.8027 47.5249 30.1927C43.2129 35.8265 38.9133 41.4693 34.6185 47.1154C34.4066 47.395 34.1842 47.48 33.8379 47.4288C26.8422 46.3792 19.8464 45.3296 12.8463 44.3082C12.2325 44.2179 12.2154 43.9504 12.2939 43.4505C14.144 31.8051 15.981 20.1579 17.8187 8.5123C17.8723 8.17208 17.9051 7.82802 17.9487 7.48482C18.0227 7.45477 18.0982 7.4241 18.1738 7.39344Z" fill="#FFF509"/>
<path d="M13.8061 47.5693C14.0203 47.4295 14.2406 47.5301 14.4481 47.5602C21.2827 48.5767 28.1188 49.5926 34.9504 50.6279C35.4281 50.6996 35.7219 50.6173 36.0268 50.2155C40.1916 44.7259 44.3749 39.2517 48.5534 33.7742C48.6992 33.5831 48.856 33.4015 49.0304 33.1899C49.2444 33.418 49.1101 33.6115 49.0693 33.7882C46.6369 44.1165 44.2003 54.4429 41.7636 64.7694C41.6147 65.4035 41.5799 65.4176 41.0171 65.0584C32.0714 59.3535 23.1265 53.6464 14.1846 47.9381C14.0391 47.8442 13.8364 47.7998 13.8061 47.5693Z" fill="#FFF509"/>
</svg>
